<svg xmlns="http://www.w3.org/2000/svg" viewBox="0 0 376 160"><title>Downtown Seattle Association</title> <path fill="#58585a" d="M215.76 111.81c-1.89-.48-3.37-.92-3.37-2.21 0-1.49 1.57-2.37 3.41-2.37a6.7 6.7 0 0 1 4.06 1.49l2-2.73a9.6 9.6 0 0 0-6.27-2.09c-3.38 0-7 1.85-7 5.91 0 2.65 2 4.1 4.34 4.86 2.77.92 5.91 1 5.91 3.21 0 1.49-1.65 2.37-3.29 2.37a9.19 9.19 0 0 1-5.59-2.09L208 121a11.79 11.79 0 0 0 7.64 2.61c3.7 0 7-2.21 7-5.79-.01-3.92-3.91-5.24-6.88-6.01zm38.92-42.02v-5.22h-3.82v5.22H246v3.42h4.82v8.64a7.28 7.28 0 0 0 1.65 5 6.73 6.73 0 0 0 5.3 2.21 7.5 7.5 0 0 0 4.5-1.24l-1.49-3.09a6.56 6.56 0 0 1-2.89.72 3.32 3.32 0 0 1-2.53-1 3.68 3.68 0 0 1-.72-2.41v-8.83h10v8.64a7.28 7.28 0 0 0 1.65 5 6.73 6.73 0 0 0 5.3 2.21 7.5 7.5 0 0 0 4.5-1.24l-1.49-3.09a6.56 6.56 0 0 1-2.89.72 3.32 3.32 0 0 1-2.53-1 3.68 3.68 0 0 1-.72-2.41v-8.83h8v-3.42h-8v-5.22h-3.82v5.22h-10zm-50.5-18.27a14.42 14.42 0 0 0 0-22.82C201.85 27 199 26 194.5 26h-8.44v28.17h8.44c4.5 0 7.39-.97 9.68-2.65zm-14.1-1.17V29.86h4.22c3.94 0 6.27.84 8 2.37a10.79 10.79 0 0 1 0 15.75c-1.77 1.53-4.1 2.37-8 2.37zm31.36 4.22a9.57 9.57 0 0 0 9.76-9.85 9.76 9.76 0 1 0-19.53 0 9.57 9.57 0 0 0 9.77 9.85zm0-16.07a6 6 0 0 1 5.95 6.23 6 6 0 1 1-11.89 0 6 6 0 0 1 5.94-6.23zm19.96 15.67l5.3-13.26 5.3 13.26h2.66l7.67-18.89h-3.94l-5.18 12.9-5.18-12.9h-2.65l-5.19 12.9-5.18-12.9h-3.94l7.68 18.89h2.65m27.05-12.98a7 7 0 0 1 5.43-2.69 5 5 0 0 1 3.9 1.85c.68.84 1.12 2 1.12 4.38v9.44h3.82v-9.24c0-3.26-.64-5.18-1.85-6.71a8.7 8.7 0 0 0-6.87-3.34 8.18 8.18 0 0 0-5.67 2.21v-1.81h-3.7v18.89h3.82zm51.28 3.54a9.76 9.76 0 1 0-19.53 0 9.76 9.76 0 1 0 19.53 0zM310 51a6 6 0 0 1-6-6.27 6 6 0 1 1 11.89 0A6 6 0 0 1 310 51zm33.19 3.17l7.67-18.89h-3.94l-5.18 12.9-5.18-12.9h-2.66l-5.18 12.9-5.18-12.9h-3.94l7.67 18.89h2.66l5.3-13.26 5.3 13.26h2.66m19.22-15.67a5 5 0 0 1 3.9 1.85c.68.84 1.12 2 1.12 4.38v9.44h3.82v-9.24c0-3.26-.64-5.18-1.85-6.71a8.7 8.7 0 0 0-6.87-3.34 8.18 8.18 0 0 0-5.67 2.21v-1.81h-3.7v18.89H357v-13a7 7 0 0 1 5.41-2.67zM193.29 85.26a9 9 0 0 1-6.87-3.62l-2.77 2.73a12.61 12.61 0 0 0 9.84 4.7c4.9 0 8.72-3.22 8.72-8.16a7.42 7.42 0 0 0-3.66-6.43c-3.62-2.41-9.6-3.17-9.6-6.75 0-2.45 2.33-3.78 4.66-3.78a7.73 7.73 0 0 1 5 1.93L201 63a11.56 11.56 0 0 0-7.55-2.81c-4.9 0-8.52 3.38-8.52 7.47a7.16 7.16 0 0 0 3.58 6.19c3.74 2.45 9.68 2.93 9.68 7.23 0 2.49-2.29 4.18-4.9 4.18zm20.37-15.87c-5.34 0-9.2 4.18-9.2 9.84a9.59 9.59 0 0 0 9.76 9.85 9.9 9.9 0 0 0 8-3.54l-2.49-2.37a6.81 6.81 0 0 1-5.42 2.57 6.08 6.08 0 0 1-6.15-5.74h14.54a6.94 6.94 0 0 0 0-.8c.04-5.55-3.77-9.81-9.04-9.81zm-5.18 7.43a5.49 5.49 0 0 1 5.31-4.1 5.28 5.28 0 0 1 5 4.1zm35.66 11.86V69.79h-3.7v1.73a8.84 8.84 0 0 0-5.91-2.13 9 9 0 0 0-4.62 1.21 10.09 10.09 0 0 0 0 17.24 9.68 9.68 0 0 0 4.74 1.25 8.65 8.65 0 0 0 5.83-2.13v1.73zm-3.82-5.91a6.55 6.55 0 0 1-5.18 2.69 6.17 6.17 0 0 1-6.27-6.23 6 6 0 0 1 6.07-6.23 6.8 6.8 0 0 1 5.38 2.69zm38.58-22.62h3.82v28.53h-3.82zm23.92 25.39l-2.49-2.37a6.81 6.81 0 0 1-5.42 2.57A6.08 6.08 0 0 1 288.8 80h14.55a7 7 0 0 0 0-.8c0-5.58-3.82-9.84-9.08-9.84s-9.2 4.18-9.2 9.84a9.59 9.59 0 0 0 9.76 9.85 9.9 9.9 0 0 0 7.99-3.51zm-8.4-12.82a5.28 5.28 0 0 1 5 4.1h-10.3a5.49 5.49 0 0 1 5.31-4.09zM192.69 95.06L181 123.19h4.18l2.93-7.23H200l3 7.23h4.18L195.5 95.06zm-2.93 17.08l4.34-10.45 4.34 10.45zm42.09-.33c-1.89-.48-3.37-.92-3.37-2.21 0-1.49 1.57-2.37 3.41-2.37a6.7 6.7 0 0 1 4.06 1.49l2-2.73a9.6 9.6 0 0 0-6.27-2.09c-3.38 0-7 1.85-7 5.91 0 2.65 2 4.1 4.34 4.86 2.77.92 5.91 1 5.91 3.21 0 1.49-1.65 2.37-3.29 2.37a9.19 9.19 0 0 1-5.59-2.09l-2 2.81a11.79 11.79 0 0 0 7.64 2.61c3.7 0 7-2.21 7-5.79.03-3.89-3.87-5.21-6.84-5.98zm18.26-7.91a9.85 9.85 0 1 0 9.76 9.84 9.57 9.57 0 0 0-9.76-9.84zm0 16.07a6.23 6.23 0 1 1 5.95-6.23 6 6 0 0 1-5.95 6.26zm22.16.03a6.23 6.23 0 0 1-.24-12.46 6.48 6.48 0 0 1 5.22 2.85l2.81-2.37a10 10 0 0 0-8-4.1 9.61 9.61 0 0 0-9.84 9.84 9.72 9.72 0 0 0 10.08 9.85 10 10 0 0 0 8.4-4.42l-2.96-2.19a6.71 6.71 0 0 1-5.47 3zm10.68-15.7h3.82v18.89h-3.82zm1.89-9.24a2.49 2.49 0 0 0-2.49 2.53 2.45 2.45 0 0 0 2.49 2.49 2.49 2.49 0 0 0 2.53-2.49 2.52 2.52 0 0 0-2.53-2.53zm19.7 10.94a8.84 8.84 0 0 0-5.91-2.13 9 9 0 0 0-4.63 1.23 10.09 10.09 0 0 0 0 17.24 9.68 9.68 0 0 0 4.74 1.25 8.66 8.66 0 0 0 5.83-2.13v1.73h3.7V104.3h-3.7zm-.12 11.25a6.55 6.55 0 0 1-5.18 2.69 6.17 6.17 0 0 1-6.27-6.23 6 6 0 0 1 6.07-6.23 6.8 6.8 0 0 1 5.38 2.69zm24.82-12.95h3.82v18.89h-3.82zm1.89-9.24a2.49 2.49 0 0 0-2.49 2.53 2.45 2.45 0 0 0 2.49 2.49 2.49 2.49 0 0 0 2.53-2.49 2.52 2.52 0 0 0-2.53-2.53zm14.07 8.84a9.85 9.85 0 1 0 9.76 9.84 9.57 9.57 0 0 0-9.76-9.84zm0 16.07a6.23 6.23 0 1 1 5.95-6.23 6 6 0 0 1-5.95 6.26zm28.39-12.74a8.7 8.7 0 0 0-6.87-3.34 8.18 8.18 0 0 0-5.67 2.21v-1.8h-3.7v18.89h3.82v-13a7 7 0 0 1 5.43-2.69 5 5 0 0 1 3.9 1.85c.68.84 1.12 2 1.12 4.38v9.44h3.82v-9.24c0-3.24-.65-5.17-1.85-6.7zm-85.14-59.89a7.28 7.28 0 0 0 1.65 5 6.73 6.73 0 0 0 5.3 2.21 7.5 7.5 0 0 0 4.5-1.24l-1.49-3.09a6.56 6.56 0 0 1-2.89.72 3.32 3.32 0 0 1-2.53-1 3.68 3.68 0 0 1-.72-2.41V38.7h6v-3.42h-6v-5.22h-3.82v5.22h-4.82v3.42h4.82zm30.34 51.74H315v5.22h-4.82v3.42H315v8.64a7.28 7.28 0 0 0 1.65 5 6.73 6.73 0 0 0 5.3 2.21 7.5 7.5 0 0 0 4.5-1.24l-1.49-3.09a6.56 6.56 0 0 1-2.96.76 3.32 3.32 0 0 1-2.53-1 3.68 3.68 0 0 1-.72-2.41v-8.84h8v-3.45h-8z"></path> <path fill="#fcb040" d="M155.49 65.33l-139.7 67.15a80.67 80.67 0 0 0 6.11 6.35l134.75-64.77a80.39 80.39 0 0 0-1.16-8.73z"></path> <path fill="#fff200" d="M.56 54.79h149.18l1.63-3.79q-.91-2.31-2-4.55H3.91a79.74 79.74 0 0 0-3.35 8.34z"></path> <path fill="#ed3295" d="M0 103.86A79.67 79.67 0 0 0 3.43 113l129.19 24.65a80.67 80.67 0 0 0 6.6-7.26z"></path> <path fill="#00aeef" d="M36.48 149.68l98.58-124.45a80.72 80.72 0 0 0-6.06-5.81L29.45 145.07a80.35 80.35 0 0 0 7.03 4.61z"></path> <path fill="#2bb673" d="M74.73 0l19.93 158.39a79.55 79.55 0 0 0 8.14-2.33L83.2.26A81.14 81.14 0 0 0 74.86 0z"></path> <path fill="#c49a6c" d="M48.13 5.24l70.07 143.61a80.3 80.3 0 0 0 7-4.76L56.19 2.66a79.61 79.61 0 0 0-8.06 2.58z"></path> <path fill="#ee2a7b" d="M107.46 154.3l43.92-103.35a79.76 79.76 0 0 0-4.81-10.09l-49.72 117a79.57 79.57 0 0 0 10.61-3.56z"></path> </svg>